# xmcd
#
# Track frame offsets: 
#        150
#        18278
#        41378
#        64778
#        79928
#        98903
#        111203
#        132428
#        148103
#        161453
#        173303
#        189053
#
# Disc length: 2757 seconds
#
# Revision: 0
# Processed by: cddbd v1.5.2PL0 Copyright (c) Steve Scherf et al.
# Submitted via: ExactAudioCopyFreeDBPlugin 1.0
#
DISCID=900ac30c
DTITLE=Copper Box - People Change
DYEAR=2011
DGENRE=Jazz
TTITLE0=Some People Change
TTITLE1=Racing
TTITLE2=Adios Baby
TTITLE3=The Flame Will Never Die
TTITLE4=Soulful Strut
TTITLE5=Corrido#1
TTITLE6=Tennessee Waltz
TTITLE7=Johnsonville Fireman's Two Step 
TTITLE8=Everytime I Try
TTITLE9=Irish Washerwoman
TTITLE10=Searchin' for Something
TTITLE11=Won't You Love Me Like That
EXTD=
EXTT0=
EXTT1=
EXTT2=
EXTT3=
EXTT4=
EXTT5=
EXTT6=
EXTT7=
EXTT8=
EXTT9=
EXTT10=
EXTT11=
PLAYORDER=
